<?xml version="1.0" encoding="utf-8"?>
<!-- Generator: Adobe Illustrator 24.3.0, SVG Export Plug-In . SVG Version: 6.00 Build 0)  -->
<svg version="1.1" id="Artwork" xmlns="http://www.w3.org/2000/svg" xmlns:xlink="http://www.w3.org/1999/xlink" x="0px" y="0px"
	 width="124.0922px" height="26.7761px" viewBox="0 0 124.0922 26.7761" style="enable-background:new 0 0 124.0922 26.7761;"
	 xml:space="preserve">
<style type="text/css">
	.st0{fill-rule:evenodd;clip-rule:evenodd;fill:url(#SVGID_1_);}
	.st1{fill-rule:evenodd;clip-rule:evenodd;fill:#FFFFFF;}
</style>
<g>
	<g id="XMLID_1_">
		<path id="XMLID_33_" d="M38.1659,20.42H33.429l-1.1368,3.3589h-2.0067l4.4871-12.4273h2.0842l4.4871,12.4273h-2.0412
			L38.1659,20.42z M33.9199,18.8698h3.7551l-1.8517-5.4511h-0.0517L33.9199,18.8698z"/>
		<path id="XMLID_43_" d="M51.0243,19.2487c0,2.8169-1.5072,4.6255-3.7809,4.6255c-1.2919,0-2.3168-0.5776-2.8507-1.5847h-0.0431
			v4.4865h-1.8603V14.7186h1.8v1.5078h0.0345c0.5168-0.9738,1.6192-1.6019,2.8852-1.6019
			C49.5085,14.6244,51.0243,16.4411,51.0243,19.2487z M49.1123,19.2487c0-1.8339-0.9474-3.0396-2.3943-3.0396
			c-1.4211,0-2.3771,1.231-2.3771,3.0396c0,1.8259,0.956,3.0488,2.3771,3.0488C48.165,22.2976,49.1123,21.101,49.1123,19.2487z"/>
		<path id="XMLID_46_" d="M60.989,19.2487c0,2.8169-1.5072,4.6255-3.7809,4.6255c-1.2919,0-2.3168-0.5776-2.8507-1.5847h-0.0431
			v4.4865H52.454V14.7186h1.8v1.5078h0.0345c0.5168-0.9738,1.6192-1.6019,2.8852-1.6019
			C59.4732,14.6244,60.989,16.4411,60.989,19.2487z M59.077,19.2487c0-1.8339-0.9474-3.0396-2.3943-3.0396
			c-1.4211,0-2.3771,1.231-2.3771,3.0396c0,1.8259,0.956,3.0488,2.3771,3.0488C58.1296,22.2976,59.077,21.101,59.077,19.2487z"/>
		<path id="XMLID_49_" d="M62.4876,11.3516h1.8603v12.4273h-1.8603V11.3516z"/>
		<path id="XMLID_51_" d="M74.0283,21.1182c-0.2498,1.6444-1.8517,2.7732-3.9015,2.7732c-2.6354,0-4.2718-1.7661-4.2718-4.5991
			c0-2.8421,1.645-4.6852,4.1943-4.6852c2.5062,0,4.0823,1.7225,4.0823,4.4693v0.6373h-6.3991v0.1125
			c0,1.5503,0.9732,2.5665,2.4373,2.5665c1.0335,0,1.8431-0.4915,2.0928-1.2747H74.0283z M67.7412,18.4139h4.5302
			c-0.0431-1.3872-0.9302-2.3001-2.222-2.3001C68.7661,16.1138,67.8359,17.0439,67.7412,18.4139z"/>
		<path id="XMLID_54_" d="M90.1762,23.7789v-9.1465h-0.0597l-3.747,9.0523h-1.4297l-3.7551-9.0523H81.125v9.1465h-1.757V11.3516
			h2.2301l4.0226,9.8091h0.0689l4.0134-9.8091h2.2393v12.4273H90.1762z"/>
		<path id="XMLID_56_" d="M101.8479,23.7789h-1.7822v-1.5583h-0.0436c-0.5168,1.0852-1.4205,1.6616-2.8077,1.6616
			c-1.9717,0-3.1774-1.2747-3.1774-3.3497v-5.814h1.8603v5.4523c0,1.378,0.6545,2.1095,1.9372,2.1095
			c1.3436,0,2.1531-0.9301,2.1531-2.3426v-5.2192h1.8603V23.7789z"/>
		<path id="XMLID_58_" d="M107.1382,14.6152c2.0061,0,3.445,1.1116,3.4875,2.7135h-1.7478
			c-0.0781-0.8015-0.7579-1.2919-1.7914-1.2919c-1.0082,0-1.68,0.4651-1.68,1.1713c0,0.542,0.4479,0.9037,1.3872,1.1369
			l1.5238,0.3525c1.8259,0.4398,2.5149,1.1116,2.5149,2.4379c0,1.6364-1.5503,2.756-3.7631,2.756
			c-2.1359,0-3.5748-1.0944-3.7126-2.748h1.8431c0.1298,0.8704,0.8268,1.3355,1.9556,1.3355c1.1104,0,1.8086-0.457,1.8086-1.1805
			c0-0.5592-0.3445-0.8612-1.2919-1.1024l-1.6191-0.3962c-1.6364-0.3962-2.4632-1.231-2.4632-2.4884
			C103.5899,15.7096,105.0276,14.6152,107.1382,14.6152z"/>
		<path id="XMLID_60_" d="M112.2816,12.3335c0-0.5948,0.4823-1.068,1.076-1.068c0.6029,0,1.0852,0.4731,1.0852,1.068
			c0,0.5856-0.4823,1.0588-1.0852,1.0588C112.7639,13.3922,112.2816,12.9191,112.2816,12.3335z M112.4275,14.7186h1.8603v9.0604
			h-1.8603V14.7186z"/>
		<path id="XMLID_63_" d="M122.3008,17.8363c-0.1642-0.9554-0.9129-1.6708-2.1359-1.6708c-1.4297,0-2.3771,1.1977-2.3771,3.0833
			c0,1.9292,0.9554,3.0925,2.3943,3.0925c1.1541,0,1.912-0.5776,2.1187-1.6283h1.7914c-0.2067,1.9039-1.7317,3.1786-3.9273,3.1786
			c-2.5838,0-4.2718-1.7661-4.2718-4.6427c0-2.8157,1.688-4.6416,4.2546-4.6416c2.3254,0,3.7723,1.4641,3.9273,3.2291H122.3008z"/>
	</g>
	<g>
		<path d="M34.7212,7.5374h-3.8438V1.4827h3.8438v0.8555h-2.9043v1.7129h2.749v0.8135h-2.749v1.8174h2.9043V7.5374z"/>
		<path d="M37.7642,2.8802c1.0283,0,1.7002,0.4785,1.7881,1.2842H38.688c-0.084-0.3359-0.4111-0.5498-0.9238-0.5498
			c-0.5029,0-0.8848,0.2393-0.8848,0.5957c0,0.2725,0.2305,0.4443,0.7256,0.5576l0.7598,0.1768
			c0.8682,0.2012,1.2754,0.5742,1.2754,1.2461c0,0.8604-0.8018,1.4346-1.8926,1.4346c-1.0869,0-1.7959-0.4902-1.875-1.3008h0.9014
			c0.1133,0.3525,0.4492,0.5713,0.9951,0.5713c0.5625,0,0.9609-0.252,0.9609-0.6172c0-0.2725-0.2139-0.4492-0.6719-0.5576
			l-0.7969-0.1846c-0.8691-0.2061-1.2715-0.5967-1.2715-1.2764C35.9897,3.4505,36.7319,2.8802,37.7642,2.8802z"/>
		<path d="M43.8423,4.4622c-0.1045-0.4453-0.4746-0.7764-1.0781-0.7764c-0.7559,0-1.2168,0.5791-1.2168,1.5527
			c0,0.9902,0.4658,1.5811,1.2168,1.5811c0.5703,0,0.9609-0.2598,1.0781-0.751h0.877c-0.1172,0.9189-0.8223,1.5566-1.9512,1.5566
			c-1.3301,0-2.1445-0.8975-2.1445-2.3867c0-1.4648,0.8105-2.3584,2.1406-2.3584c1.1455,0,1.8379,0.667,1.9551,1.582H43.8423z"/>
		<path d="M49.7231,7.5374H48.854V6.8118h-0.0713c-0.2217,0.5205-0.6875,0.8135-1.3799,0.8135
			c-1.0117,0-1.5742-0.6162-1.5742-1.6904V2.9681h0.9023v2.7314c0,0.7383,0.2979,1.0908,0.9609,1.0908
			c0.7305,0,1.1289-0.4316,1.1289-1.1494V2.9681h0.9023V7.5374z M47.2349,2.2044l1.0527-1.4434h1.0576l-1.1787,1.4434H47.2349z"/>
		<path d="M54.146,4.4622c-0.1045-0.4453-0.4746-0.7764-1.0781-0.7764c-0.7559,0-1.2168,0.5791-1.2168,1.5527
			c0,0.9902,0.4658,1.5811,1.2168,1.5811c0.5703,0,0.9609-0.2598,1.0781-0.751h0.877c-0.1172,0.9189-0.8223,1.5566-1.9512,1.5566
			c-1.3301,0-2.1445-0.8975-2.1445-2.3867c0-1.4648,0.8105-2.3584,2.1406-2.3584c1.1455,0,1.8379,0.667,1.9551,1.582H54.146z"/>
		<path d="M56.2163,1.1849h0.8945v2.5176h0.0713c0.2217-0.5117,0.7041-0.8184,1.3926-0.8184c0.9736,0,1.5732,0.6172,1.5732,1.7041
			v2.9492h-0.9014V4.8099c0-0.7295-0.3398-1.0986-0.9785-1.0986c-0.7383,0-1.1494,0.4648-1.1494,1.1572v2.6689h-0.9023V1.1849z"/>
		<path d="M61.2788,6.2454c0-0.8223,0.6123-1.2969,1.6992-1.3643l1.2383-0.0713V4.4153c0-0.4824-0.3193-0.7549-0.9355-0.7549
			c-0.5039,0-0.8525,0.1846-0.9531,0.5078h-0.873c0.0928-0.7852,0.8311-1.2881,1.8672-1.2881c1.1465,0,1.792,0.5703,1.792,1.5352
			v3.1221h-0.8682V6.8958h-0.0713c-0.2734,0.457-0.7725,0.7178-1.3721,0.7178C61.9204,7.6136,61.2788,7.0804,61.2788,6.2454z
			 M64.2163,5.8548V5.4729l-1.1162,0.0713c-0.6299,0.042-0.915,0.2559-0.915,0.6592c0,0.4111,0.3564,0.6504,0.8477,0.6504
			C63.7124,6.8538,64.2163,6.4212,64.2163,5.8548z"/>
		<path d="M66.563,1.1849h0.9023v6.3525H66.563V1.1849z"/>
		<path d="M68.7163,5.2503c0-1.4727,0.8223-2.3701,2.1572-2.3701c1.3301,0,2.1523,0.8975,2.1523,2.3701
			c0,1.4814-0.8184,2.375-2.1523,2.375C69.5347,7.6253,68.7163,6.7317,68.7163,5.2503z M72.0991,5.2503
			c0-0.9902-0.4453-1.5693-1.2256-1.5693c-0.7852,0-1.2256,0.5791-1.2256,1.5693c0,0.999,0.4404,1.5742,1.2256,1.5742
			C71.6538,6.8245,72.0991,6.2454,72.0991,5.2503z"/>
		<path d="M80.5737,6.304c-0.2061,0.8184-0.9355,1.3213-1.9805,1.3213c-1.3096,0-2.1113-0.8975-2.1113-2.3574
			c0-1.4609,0.8184-2.3877,2.1064-2.3877c1.2715,0,2.04,0.8682,2.04,2.3037v0.3145h-3.2275v0.0508
			c0.0293,0.8008,0.4951,1.3086,1.2168,1.3086c0.5459,0,0.9189-0.1973,1.0869-0.5537H80.5737z M77.4009,4.8313h2.3086
			c-0.0215-0.7178-0.458-1.1836-1.125-1.1836S77.4517,4.1175,77.4009,4.8313z"/>
		<path d="M81.8325,2.9681h0.8691v0.7256h0.0674c0.2217-0.5078,0.6748-0.8135,1.3633-0.8135c1.0195,0,1.582,0.6123,1.582,1.6992
			v2.958H84.812V4.8059c0-0.7344-0.3184-1.0996-0.9863-1.0996c-0.667,0-1.0908,0.4453-1.0908,1.1582v2.6729h-0.9023V2.9681z"/>
	</g>
	<g>
		<g>
			<linearGradient id="SVGID_1_" gradientUnits="userSpaceOnUse" x1="12.5816" y1="25.0657" x2="12.5816" y2="0.5423">
				<stop  offset="0" style="stop-color:#FA233B"/>
				<stop  offset="1" style="stop-color:#FB5C74"/>
			</linearGradient>
			<path class="st0" d="M25.1632,7.8713c0-0.3005,0.0001-0.6011-0.0017-0.9016C25.16,6.7166,25.157,6.4635,25.1502,6.2104
				c-0.0149-0.5513-0.0474-1.1074-0.1453-1.6525c-0.0995-0.5536-0.2618-1.0688-0.5179-1.5717c-0.2515-0.494-0.58-0.946-0.972-1.338
				c-0.392-0.392-0.8441-0.7206-1.3382-0.9721c-0.5027-0.2559-1.0176-0.4182-1.5709-0.5177
				c-0.5454-0.098-1.1017-0.1305-1.6531-0.1454c-0.2531-0.0068-0.5062-0.0098-0.7594-0.0113
				c-0.3005-0.0018-0.6011-0.0017-0.9016-0.0017H7.8713c-0.3005,0-0.6011-0.0001-0.9016,0.0017
				C6.7166,0.0032,6.4635,0.0061,6.2104,0.0129C5.6589,0.0278,5.1026,0.0603,4.5572,0.1584C4.0039,0.2578,3.489,0.4201,2.9863,0.676
				C2.4922,0.9276,2.0402,1.2561,1.6481,1.6481c-0.392,0.392-0.7205,0.844-0.972,1.338C0.4201,3.4891,0.2577,4.0043,0.1583,4.5578
				C0.0603,5.103,0.0278,5.6591,0.0129,6.2104C0.0061,6.4635,0.0032,6.7166,0.0016,6.9697
				c-0.0018,0.3005-0.0017,0.6011-0.0017,0.9016v9.4205c0,0.3005-0.0001,0.6011,0.0017,0.9016
				c0.0015,0.2532,0.0045,0.5063,0.0113,0.7594c0.0149,0.5513,0.0474,1.1074,0.1453,1.6525
				c0.0995,0.5536,0.2618,1.0688,0.5179,1.5717c0.2515,0.494,0.58,0.946,0.972,1.338c0.392,0.392,0.8441,0.7206,1.3382,0.9721
				c0.5027,0.2559,1.0176,0.4182,1.5709,0.5177c0.5454,0.098,1.1017,0.1305,1.6531,0.1454
				c0.2531,0.0068,0.5062,0.0098,0.7594,0.0113c0.3005,0.0018,0.6011,0.0017,0.9016,0.0017h9.4205
				c0.3005,0,0.6011,0.0001,0.9016-0.0017c0.2532-0.0015,0.5063-0.0045,0.7594-0.0113c0.5515-0.0149,1.1078-0.0474,1.6531-0.1454
				c0.5533-0.0994,1.0682-0.2618,1.5709-0.5177c0.4941-0.2515,0.9462-0.5801,1.3382-0.9721c0.392-0.392,0.7205-0.844,0.972-1.338
				c0.2561-0.5029,0.4184-1.0181,0.5179-1.5717c0.0979-0.5452,0.1304-1.1013,0.1453-1.6525
				c0.0068-0.2531,0.0098-0.5062,0.0113-0.7594c0.0018-0.3005,0.0017-0.6011,0.0017-0.9016V7.8713z"/>
		</g>
		<g id="Glyph_11_">
			<g>
				<path class="st1" d="M17.7892,3.8442c-0.0608,0.0052-0.6013,0.1013-0.6661,0.1145L9.644,5.4676L9.6411,5.4682
					C9.4459,5.5097,9.2934,5.5783,9.1749,5.6779C9.0322,5.7976,8.9531,5.9665,8.9233,6.1635
					c-0.0064,0.0422-0.0171,0.127-0.0171,0.2532c0,0,0.0001,7.6411,0.0002,9.3605c0,0.2184-0.0175,0.4315-0.1655,0.6124
					c-0.1479,0.1808-0.3315,0.2357-0.5456,0.2787l-0.4883,0.0985c-0.6178,0.1246-1.0198,0.2089-1.3841,0.3503
					c-0.348,0.1351-0.6087,0.3072-0.8163,0.5247c-0.4114,0.4312-0.579,1.0164-0.5214,1.5642
					c0.0491,0.4675,0.2595,0.9148,0.6205,1.2459c0.2437,0.2234,0.5484,0.3934,0.908,0.4656
					c0.3727,0.075,0.7695,0.0486,1.3494-0.0684c0.3088-0.0623,0.5981-0.1596,0.874-0.3224
					c0.2724-0.1608,0.5062-0.3751,0.6884-0.6367c0.1829-0.2623,0.3015-0.5536,0.3666-0.8633
					c0.0671-0.3192,0.0836-0.6084,0.0836-0.927V9.9808c0-0.4351,0.1233-0.5497,0.4739-0.6344c0,0,6.2169-1.2538,6.5065-1.3102
					c0.405-0.0779,0.5952,0.0377,0.5952,0.4618l-0.0001,5.5422c0,0.2198-0.0024,0.4414-0.1515,0.6237
					c-0.148,0.1808-0.3315,0.2357-0.5457,0.2787c-0.1628,0.0328-0.3255,0.0657-0.4883,0.0984
					c-0.6179,0.1246-1.0199,0.209-1.3841,0.3503c-0.3481,0.1351-0.6088,0.3071-0.8163,0.5247
					c-0.4114,0.4311-0.5938,1.0164-0.5362,1.5641c0.0491,0.4675,0.2743,0.9148,0.6353,1.2458
					c0.2437,0.2234,0.5484,0.3887,0.908,0.461c0.3727,0.075,0.7696,0.0486,1.3494-0.0684c0.3089-0.0623,0.5981-0.1549,0.874-0.3177
					c0.2724-0.1608,0.5062-0.3752,0.6885-0.6367c0.1829-0.2623,0.3015-0.5536,0.3665-0.8633
					c0.0671-0.3192,0.0699-0.6084,0.0699-0.927V4.5055C18.4205,4.0747,18.1935,3.8093,17.7892,3.8442z"/>
			</g>
		</g>
	</g>
</g>
</svg>
